<?xml version="1.0" encoding="UTF-8"?><svg id="a" xmlns="http://www.w3.org/2000/svg" xmlns:xlink="http://www.w3.org/1999/xlink" viewBox="0 0 1000 1000"><defs><style>.f{fill:url(#c);}.g{fill:url(#b);}.h{fill:url(#d);}.i{fill:url(#e);}</style><linearGradient id="b" x1="73.1" y1="661.33" x2="959.89" y2="661.33" gradientTransform="matrix(1, 0, 0, 1, 0, 0)" gradientUnits="userSpaceOnUse"><stop offset="0" stop-color="#bf0436"/><stop offset=".51" stop-color="#d90754"/><stop offset="1" stop-color="#f2167d"/></linearGradient><linearGradient id="c" x1="14.66" y1="280.33" x2="985.34" y2="280.33" xlink:href="#b"/><linearGradient id="d" x1="399.34" y1="80.16" x2="531.02" y2="80.16" xlink:href="#b"/><linearGradient id="e" x1="164.01" y1="125.5" x2="311.48" y2="125.5" xlink:href="#b"/></defs><path class="g" d="M937.28,586.71c-33.79-16.98-68.6-32.88-104.58-44.12-22.17-6.93-54.97-15.29-69.54-4.55-53.36,39.3-111.81,19.07-167.74,23.53-9.47,.75-20.1-13.36-32.23-22.06,60.6-40.35,114.58-74.78,166.45-112.15,9.79-7.05,18.68-28.42,15.13-38.71-11.01-31.95-90.73-70.15-123.95-65.62-68.73,9.36-137.53,18.31-206.48,25.76-59.8,6.46-119.85,10.6-188.48,16.51,16.4,20.03,26.42,35.07,39.14,47.25,32.13,30.78,60.95,48.47,110.27,18.23,64.85-39.77,141.18-32.06,222.04-24.62-15.44,20.17-25.23,33.57-35.65,46.44-26.6,32.85-55.14,51.33-96.44,20-13-9.86-32.3-11.34-48.71-16.65-1.88,2.71-3.76,5.42-5.65,8.12,25.01,33.25,50.02,66.49,75.03,99.74-2.96,4.57-5.92,9.14-8.88,13.71-134.79,9.14-269.59,18.28-403.91,27.39,28.08,73.96,103.02,119.32,158.6,89.22,82.23-44.53,171.08-47.82,262.25-55.82,0,58.47,5.12,115.17-1.4,170.49-6.9,58.52-42.33,83.61-101.58,83.11-30.03-.25-60.03-4.53-100.43-7.84,23.67,19.94,38.93,32.31,53.65,45.28,49.06,43.19,108.73,87.71,169.79,64.09,71.09-27.5,69.58-107.93,70.66-176.2,.94-59.46,.2-118.94,.2-187.65,75.86,0,147.11-.62,218.34,.24,41.02,.5,82.01,4.72,122.99,4.33,11.29-.11,22.48-10.75,33.72-16.57-7.4-10.58-12.49-25.8-22.62-30.89Z"/><path class="f" d="M980.21,340.97c-13.98-41.14-28.47-82.64-48.28-121.1-21.9-42.51-107.48-66.17-152.32-52.91-36.22,10.71-75.02,12.61-105.95,17.39,42.57-25.45,88.3-52.2,133.4-79.96,24.81-15.27,32-36.9,14.51-62.06-19.53-28.11-110.49-47.76-144.48-32.82,10.75,20.58,31.8,42.01,30.26,61.64-3.77,47.82-92.94,116.28-142.33,120.9-155.78,14.57-311.47,30.21-467.03,46.93-14.83,1.59-28.54,13.65-38.66,18.77,16.68,24.81,42.48,47.77,38.16,59.69-12.58,34.69-30.93,73.15-58.8,94.8-31.3,24.31-27.94,45.04-13,69.3,28.8,46.79,72.72,70.22,117.5,74.77,7.86-54.01,14.19-99.73,21.31-145.32,2.59-16.6,11.75-33.47,9.85-49.23-6.43-53.41,25.68-70.91,68.21-76.86,117.29-16.42,234.57-33.71,352.38-45.3,63.15-6.21,127.48-3.4,191.06-.21,16.88,.85,41.99,14.99,46.78,28.82,4.55,13.15-9.99,35.69-20.74,50.79-13.49,18.94-31.67,34.5-47.47,51.15,64.44,69.48,106.46,75,183.73,42.01,38.49-16.43,42.67-39.51,31.9-71.18Z"/><path class="h" d="M530.85,158.69C533.82,77.74,498.39,33.77,400.04,0c-8.58,87.8,63.2,173.24,130.81,158.69Z"/><path class="i" d="M203.12,148.74c28.12,25.6,59.38,62.54,108.36,52.15,.44-78.67-41.84-124.88-147.46-152.58,14.53,40.29,17.47,80.74,39.11,100.43Z"/></svg>